<svg xmlns="http://www.w3.org/2000/svg" x="0" y="0" viewBox="0 0 175 175" width="175" height="175">
  <path fill="#FAA51C" d="M87.1 8.6c43.6-.2 79 35 79.2 78.6.2 43.6-35 79-78.6 79.2-43.6.2-79-35-79.2-78.6-.1-43.5 35.1-79 78.6-79.2m0-8.6C38.9.2-.1 39.4 0 87.7v.2c.2 48.3 39.4 87.3 87.7 87.1h.1c11.7 0 23.3-2.4 34-7 21-8.9 37.6-25.7 46.4-46.7 4.5-10.8 6.9-22.3 6.8-34 0-11.7-2.4-23.3-7-34-4.5-10.4-10.9-19.8-18.9-27.7-8-7.9-17.5-14.3-27.9-18.6-10.7-4.7-22.3-7-34.1-7z"/>
  <path fill="#FFFFFF" d="M93.5 144.6c3.4-2.2 24.4-16.7 30.9-36.7 0 0-.6 14.3-21.6 41.4-.1.2-.3.4-.5.6 55.7-6.5 41.5-85.4 41.5-85.4C129 71.1 110.6 87 110.6 87c-25.5 21.8-21 46.7-17.1 57.6z"/>
  <path fill="#FFFFFF" d="M72.6 149.9c-.1-.2-.3-.4-.4-.6-21-27.2-21.6-41.4-21.6-41.4 6.5 20 27.4 34.4 30.9 36.7 3.9-11 8.4-35.8-17.2-57.6 0 0-18.3-15.9-33.2-22.4 0 0-14.2 78.9 41.5 85.3zM87.1 92c10.4 0 18.9-8.5 18.9-18.9 0-10.4-8.5-18.9-18.9-18.9-10.4 0-18.9 8.5-18.9 18.9 0 10.5 8.5 18.9 18.9 18.9z"/>
</svg>